<svg id="svg" version="1.1" xmlns="http://www.w3.org/2000/svg" xmlns:xlink="http://www.w3.org/1999/xlink" width="100" height="70.8888888889" viewBox="0, 0, 400,354.44444444444446"><g id="svgg">
<path id="path0" d="M160.816 0.214 C 136.914 1.717,119.316 5.815,96.986 15.077 C 69.315 26.554,39.359 51.612,21.747 78.014 C 15.467 87.429,4.965 106.871,4.965 109.082 C 4.965 109.158,13.159 109.220,23.175 109.220 C 53.609 109.220,61.063 110.513,73.734 117.990 C 109.667 139.193,111.201 199.404,76.401 222.674 C 62.721 231.821,56.720 232.979,22.972 232.979 C 10.532 232.979,0.355 233.107,0.355 233.263 C 0.355 234.952,7.082 250.786,11.082 258.511 C 59.497 352.014,177.172 383.008,265.160 325.431 L 271.631 321.196 271.631 232.587 L 271.631 143.978 254.521 143.886 L 237.411 143.794 237.411 126.596 L 237.411 109.397 284.486 109.307 C 310.377 109.258,331.560 109.139,331.560 109.043 C 331.560 108.948,330.837 107.260,329.952 105.292 C 303.373 46.153,247.894 6.584,183.333 0.719 C 178.960 0.321,164.323 -0.007,160.816 0.214 M373.670 40.809 C 373.100 41.141,373.050 42.084,373.050 52.500 L 373.050 63.830 375.000 63.830 L 376.950 63.830 376.950 57.071 C 376.950 52.755,377.076 50.390,377.297 50.527 C 377.488 50.645,379.262 53.611,381.240 57.118 C 386.598 66.620,386.221 66.714,393.118 54.155 C 394.265 52.065,395.326 50.355,395.475 50.355 C 395.623 50.355,395.745 53.387,395.745 57.092 L 395.745 63.830 397.695 63.830 L 399.645 63.830 399.645 52.715 C 399.645 35.546,399.043 35.607,388.919 53.808 C 386.310 58.499,386.371 58.476,384.663 55.405 C 376.500 40.728,375.679 39.639,373.670 40.809 M346.944 42.642 L 346.986 44.504 351.684 44.602 L 356.383 44.701 356.383 54.284 L 356.383 63.867 358.245 63.760 L 360.106 63.652 360.201 54.167 L 360.295 44.681 364.899 44.681 L 369.504 44.681 369.504 42.730 L 369.504 40.780 358.203 40.780 L 346.902 40.780 346.944 42.642 M181.884 109.758 C 230.890 116.723,250.510 179.421,214.894 215.247 C 185.853 244.458,135.390 235.536,118.630 198.227 C 97.985 152.268,133.314 102.855,181.884 109.758 M26.424 143.667 C 26.325 143.932,26.283 156.516,26.331 171.631 L 26.418 199.113 34.043 199.106 C 40.141 199.101,42.128 198.976,43.972 198.484 C 69.788 191.591,70.263 151.834,44.620 144.289 C 41.306 143.314,26.741 142.816,26.424 143.667 M309.574 213.889 C 309.574 252.343,309.679 283.701,309.807 283.573 C 310.752 282.628,317.264 272.900,320.055 268.262 C 327.893 255.240,333.135 243.187,338.255 226.418 C 345.180 203.735,346.915 174.974,342.927 148.973 C 342.526 146.360,342.199 144.166,342.199 144.097 C 342.199 144.028,334.858 143.972,325.887 143.972 L 309.574 143.972 309.574 213.889 M167.908 145.897 C 143.425 150.744,141.722 187.479,165.603 195.612 C 168.952 196.753,177.382 196.544,180.851 195.235 C 190.985 191.411,196.576 182.774,196.592 170.922 C 196.615 154.125,183.618 142.786,167.908 145.897 " stroke="none" fill="#04040c" fill-rule="evenodd"></path><path id="path1" d="M0.000 116.312 L 0.000 232.624 21.720 232.623 C 53.330 232.621,58.530 231.883,70.538 225.695 C 107.824 206.477,112.172 146.271,78.066 121.446 C 64.425 111.517,57.180 109.929,25.503 109.929 C 1.553 109.929,3.756 110.489,6.237 105.029 C 23.929 66.103,53.002 36.071,90.957 17.514 C 99.922 13.132,105.764 10.869,118.731 6.760 C 127.075 4.116,140.594 1.603,152.128 0.552 C 156.557 0.148,146.373 0.077,78.635 0.042 L 0.000 0.000 0.000 116.312 M182.801 0.403 C 215.061 3.179,248.864 15.579,271.631 32.988 C 272.314 33.510,274.388 35.069,276.241 36.452 C 278.094 37.834,280.090 39.414,280.676 39.962 C 281.262 40.509,282.662 41.704,283.787 42.615 C 295.620 52.206,309.688 68.709,319.653 84.690 C 324.569 92.573,332.249 108.191,331.794 109.378 C 331.604 109.872,326.749 109.929,284.582 109.929 L 237.582 109.929 237.674 126.684 C 237.764 143.153,237.778 143.441,238.475 143.491 C 238.865 143.519,246.645 143.559,255.762 143.579 L 272.340 143.617 272.340 232.246 L 272.340 320.875 270.833 322.086 C 265.310 326.527,239.360 341.135,236.994 341.135 C 236.876 341.135,235.006 341.834,232.840 342.688 C 216.243 349.233,200.035 352.848,180.496 354.362 C 179.619 354.430,228.648 354.514,289.450 354.548 L 400.000 354.610 400.000 209.397 L 400.000 64.184 397.703 64.184 L 395.406 64.184 395.309 57.787 L 395.213 51.389 391.667 57.652 C 386.602 66.597,386.268 66.647,381.902 59.136 C 380.286 56.354,378.592 53.440,378.137 52.660 L 377.312 51.241 377.308 57.729 L 377.305 64.217 374.911 64.112 L 372.518 64.007 372.518 52.785 C 372.518 40.392,372.576 40.071,374.811 40.071 C 376.264 40.071,376.860 40.857,381.183 48.480 C 383.399 52.386,385.476 55.932,385.798 56.360 C 386.401 57.159,388.629 53.777,394.487 43.168 C 396.208 40.052,397.784 39.239,399.352 40.658 C 399.979 41.226,400.000 40.578,400.000 20.622 L 400.000 0.000 289.628 0.049 C 225.056 0.077,180.727 0.224,182.801 0.403 M369.858 42.720 L 369.858 45.014 365.337 45.114 L 360.816 45.213 360.721 54.715 L 360.627 64.217 358.239 64.112 L 355.851 64.007 355.771 55.319 C 355.727 50.541,355.687 46.277,355.683 45.844 C 355.674 45.078,355.554 45.054,351.152 44.957 L 346.631 44.858 346.521 43.130 C 346.336 40.219,345.436 40.426,358.322 40.426 L 369.858 40.426 369.858 42.720 M165.603 109.972 C 115.721 115.704,95.151 179.586,131.599 215.577 C 161.968 245.565,214.476 233.396,228.709 193.071 C 244.380 148.670,211.028 104.752,165.603 109.972 M43.880 143.613 C 51.418 145.421,57.961 150.811,61.305 157.969 C 64.672 165.174,64.683 177.170,61.329 184.363 C 56.395 194.944,48.637 199.312,34.309 199.574 L 26.241 199.721 26.241 171.315 L 26.241 142.908 33.599 142.910 C 39.699 142.912,41.457 143.033,43.880 143.613 M342.553 143.788 C 342.553 143.882,342.946 146.350,343.425 149.272 C 348.819 182.138,344.428 216.475,330.680 248.936 C 326.201 259.513,310.577 285.413,309.193 284.558 C 308.994 284.435,308.865 256.627,308.865 213.986 L 308.865 143.617 325.709 143.617 C 334.973 143.617,342.553 143.694,342.553 143.788 M180.767 146.188 C 203.879 154.326,202.109 191.325,178.369 196.317 C 158.846 200.423,143.297 182.175,149.477 162.411 C 153.718 148.846,167.711 141.591,180.767 146.188 M0.009 294.060 L 0.000 354.610 78.635 354.561 C 121.884 354.534,155.754 354.384,153.901 354.226 C 106.563 350.207,64.039 328.480,33.538 292.730 C 32.207 291.170,30.769 289.491,30.344 288.999 C 29.589 288.125,28.089 286.120,23.291 279.571 C 15.048 268.319,6.390 251.653,1.388 237.411 L 0.018 233.511 0.009 294.060 " stroke="none" fill="#fbfbfb" fill-rule="evenodd"></path><path id="path2" d="M358.067 40.689 L 369.504 40.790 369.504 42.735 L 369.504 44.681 365.092 44.681 C 362.665 44.681,360.606 44.801,360.515 44.947 C 360.424 45.093,362.449 45.133,365.015 45.035 L 369.681 44.858 369.681 42.730 L 369.681 40.603 358.156 40.595 L 346.631 40.588 358.067 40.689 M349.040 44.944 C 350.364 45.013,352.439 45.012,353.649 44.943 C 354.860 44.874,353.777 44.818,351.241 44.819 C 348.706 44.819,347.715 44.876,349.040 44.944 M360.435 55.142 C 360.435 59.433,360.486 61.139,360.549 58.934 C 360.611 56.729,360.611 53.219,360.548 51.133 C 360.486 49.047,360.435 50.851,360.435 55.142 M376.950 57.341 C 376.852 61.086,376.896 64.027,377.047 63.876 C 377.198 63.724,377.277 60.660,377.224 57.066 L 377.126 50.532 376.950 57.341 M395.318 57.196 C 395.375 60.745,395.535 63.762,395.672 63.900 C 395.810 64.038,395.875 61.247,395.817 57.697 C 395.760 54.148,395.600 51.132,395.463 50.994 C 395.325 50.856,395.260 53.647,395.318 57.196 M169.238 109.464 C 169.579 109.553,170.137 109.553,170.479 109.464 C 170.820 109.375,170.541 109.302,169.858 109.302 C 169.176 109.302,168.896 109.375,169.238 109.464 M214.184 126.064 C 215.244 127.137,216.190 128.014,216.288 128.014 C 216.385 128.014,215.598 127.137,214.539 126.064 C 213.480 124.991,212.533 124.113,212.436 124.113 C 212.338 124.113,213.125 124.991,214.184 126.064 M131.206 126.064 C 130.344 126.941,129.719 127.660,129.817 127.660 C 129.914 127.660,130.699 126.941,131.560 126.064 C 132.422 125.186,133.047 124.468,132.949 124.468 C 132.852 124.468,132.067 125.186,131.206 126.064 M171.365 145.294 C 172.097 145.370,173.293 145.370,174.025 145.294 C 174.756 145.217,174.158 145.155,172.695 145.155 C 171.232 145.155,170.634 145.217,171.365 145.294 M101.195 171.277 C 101.195 173.324,101.254 174.162,101.325 173.138 C 101.397 172.114,101.397 170.439,101.325 169.415 C 101.254 168.391,101.195 169.229,101.195 171.277 M345.125 168.972 C 345.129 169.752,345.201 170.029,345.286 169.588 C 345.371 169.147,345.368 168.509,345.279 168.170 C 345.190 167.831,345.121 168.191,345.125 168.972 M196.932 170.922 C 196.932 172.580,196.994 173.258,197.068 172.429 C 197.143 171.600,197.143 170.244,197.068 169.415 C 196.994 168.586,196.932 169.264,196.932 170.922 M148.324 170.922 C 148.324 171.800,148.393 172.159,148.477 171.720 C 148.562 171.281,148.562 170.563,148.477 170.124 C 148.393 169.685,148.324 170.044,148.324 170.922 M345.125 185.638 C 345.129 186.418,345.201 186.696,345.286 186.255 C 345.371 185.814,345.368 185.175,345.279 184.836 C 345.190 184.497,345.121 184.858,345.125 185.638 M29.149 199.555 C 30.845 199.619,33.718 199.620,35.532 199.555 C 37.346 199.491,35.957 199.438,32.447 199.437 C 28.936 199.437,27.452 199.490,29.149 199.555 M10.904 232.890 C 16.804 232.944,26.458 232.944,32.358 232.890 C 38.258 232.835,33.431 232.791,21.631 232.791 C 9.832 232.791,5.004 232.835,10.904 232.890 " stroke="none" fill="#909292" fill-rule="evenodd"></path><path id="path3" d="M160.550 0.250 C 160.988 0.335,161.707 0.335,162.145 0.250 C 162.584 0.166,162.225 0.097,161.348 0.097 C 160.470 0.097,160.111 0.166,160.550 0.250 M174.738 0.251 C 175.179 0.336,175.818 0.332,176.157 0.244 C 176.496 0.155,176.135 0.085,175.355 0.089 C 174.574 0.093,174.297 0.166,174.738 0.251 M88.918 18.640 C 87.992 19.123,87.234 19.597,87.234 19.694 C 87.234 19.791,88.032 19.466,89.007 18.972 C 89.982 18.477,90.780 17.996,90.780 17.902 C 90.780 17.667,90.812 17.655,88.918 18.640 M247.872 18.957 C 247.872 19.055,248.511 19.460,249.291 19.858 C 250.071 20.256,250.709 20.502,250.709 20.404 C 250.709 20.307,250.071 19.902,249.291 19.504 C 248.511 19.106,247.872 18.860,247.872 18.957 M399.020 40.980 C 399.570 41.634,399.646 42.885,399.734 52.859 L 399.833 64.007 399.917 52.803 L 400.000 41.599 399.202 40.924 C 398.406 40.250,398.406 40.250,399.020 40.980 M372.872 52.748 L 372.872 64.007 374.823 64.041 L 376.773 64.075 374.916 63.934 L 373.060 63.793 372.966 52.641 L 372.872 41.489 372.872 52.748 M286.702 45.745 C 287.464 46.525,288.167 47.163,288.265 47.163 C 288.362 47.163,287.819 46.525,287.057 45.745 C 286.295 44.965,285.592 44.326,285.494 44.326 C 285.397 44.326,285.940 44.965,286.702 45.745 M49.272 46.011 L 48.050 47.340 49.379 46.118 C 50.111 45.446,50.709 44.848,50.709 44.789 C 50.709 44.518,50.409 44.773,49.272 46.011 M356.028 54.344 L 356.206 64.007 357.940 64.117 C 358.893 64.178,359.803 64.098,359.962 63.940 C 360.121 63.782,359.380 63.707,358.317 63.774 L 356.383 63.895 356.383 54.288 C 356.383 49.004,356.263 44.681,356.117 44.681 C 355.971 44.680,355.931 49.029,356.028 54.344 M293.256 51.862 C 296.709 55.402,297.163 55.835,297.163 55.579 C 297.163 55.527,295.448 53.811,293.351 51.767 L 289.539 48.050 293.256 51.862 M42.722 52.216 L 39.894 55.142 42.819 52.313 C 45.536 49.686,45.906 49.291,45.648 49.291 C 45.594 49.291,44.278 50.607,42.722 52.216 M37.589 57.624 C 36.727 58.502,36.102 59.220,36.200 59.220 C 36.297 59.220,37.082 58.502,37.943 57.624 C 38.805 56.746,39.430 56.028,39.332 56.028 C 39.235 56.028,38.450 56.746,37.589 57.624 M387.678 63.334 C 387.240 63.834,387.066 64.181,387.293 64.106 C 387.675 63.978,388.901 62.403,388.607 62.418 C 388.535 62.421,388.116 62.833,387.678 63.334 M397.433 64.081 C 397.874 64.165,398.513 64.162,398.852 64.073 C 399.191 63.985,398.830 63.915,398.050 63.919 C 397.270 63.923,396.992 63.996,397.433 64.081 M11.525 94.681 C 11.222 95.266,11.054 95.745,11.152 95.745 C 11.250 95.745,11.577 95.266,11.879 94.681 C 12.182 94.096,12.350 93.617,12.252 93.617 C 12.155 93.617,11.827 94.096,11.525 94.681 M284.574 109.218 L 237.411 109.397 237.411 126.596 L 237.411 143.794 254.521 143.886 L 271.630 143.978 271.720 232.539 L 271.811 321.099 271.810 232.447 L 271.809 143.794 254.699 143.702 L 237.589 143.610 237.589 126.592 L 237.589 109.574 284.554 109.574 C 315.481 109.574,331.593 109.453,331.738 109.220 C 331.858 109.025,331.907 108.904,331.847 108.952 C 331.787 109.000,310.514 109.119,284.574 109.218 M14.450 109.486 C 19.765 109.541,28.462 109.541,33.777 109.486 C 39.091 109.430,34.743 109.385,24.113 109.385 C 13.484 109.385,9.136 109.430,14.450 109.486 M167.110 109.464 C 167.451 109.553,168.010 109.553,168.351 109.464 C 168.692 109.375,168.413 109.302,167.730 109.302 C 167.048 109.302,166.769 109.375,167.110 109.464 M177.220 109.471 C 177.662 109.555,178.300 109.552,178.639 109.464 C 178.978 109.375,178.617 109.305,177.837 109.309 C 177.057 109.313,176.779 109.386,177.220 109.471 M75.177 118.923 C 75.177 119.021,75.656 119.442,76.241 119.858 C 76.826 120.275,77.305 120.536,77.305 120.438 C 77.305 120.341,76.826 119.920,76.241 119.504 C 75.656 119.087,75.177 118.826,75.177 118.923 M86.170 128.546 C 86.832 129.229,87.453 129.787,87.550 129.787 C 87.648 129.787,87.186 129.229,86.525 128.546 C 85.863 127.863,85.242 127.305,85.145 127.305 C 85.047 127.305,85.509 127.863,86.170 128.546 M128.350 128.989 L 127.128 130.319 128.457 129.097 C 129.189 128.425,129.787 127.827,129.787 127.767 C 129.787 127.497,129.487 127.752,128.350 128.989 M216.312 128.125 C 216.312 128.186,216.831 128.705,217.465 129.278 L 218.617 130.319 217.575 129.167 C 216.605 128.092,216.312 127.851,216.312 128.125 M93.794 139.362 C 94.097 139.947,94.424 140.426,94.522 140.426 C 94.619 140.426,94.452 139.947,94.149 139.362 C 93.846 138.777,93.519 138.298,93.422 138.298 C 93.324 138.298,93.492 138.777,93.794 139.362 M26.472 143.174 C 26.381 143.320,28.247 143.398,30.618 143.347 C 38.702 143.173,39.547 143.047,33.088 142.977 C 29.540 142.939,26.563 143.027,26.472 143.174 M309.456 143.853 C 309.128 144.182,309.157 284.043,309.486 284.043 C 309.632 284.043,309.711 252.528,309.661 214.011 L 309.571 143.979 325.973 143.883 L 342.376 143.787 326.034 143.702 C 317.046 143.655,309.586 143.723,309.456 143.853 M189.007 151.596 C 189.669 152.278,190.290 152.837,190.387 152.837 C 190.485 152.837,190.023 152.278,189.362 151.596 C 188.700 150.913,188.079 150.355,187.981 150.355 C 187.884 150.355,188.345 150.913,189.007 151.596 M344.409 160.993 C 344.409 161.676,344.481 161.955,344.571 161.613 C 344.660 161.272,344.660 160.714,344.571 160.372 C 344.481 160.031,344.409 160.310,344.409 160.993 M344.782 165.426 C 344.785 166.401,344.854 166.758,344.935 166.219 C 345.017 165.679,345.015 164.882,344.930 164.445 C 344.846 164.009,344.780 164.450,344.782 165.426 M101.165 166.135 C 101.168 167.110,101.237 167.467,101.318 166.928 C 101.400 166.389,101.398 165.591,101.313 165.155 C 101.229 164.719,101.163 165.160,101.165 166.135 M112.882 167.553 C 112.884 168.918,112.948 169.433,113.025 168.698 C 113.102 167.962,113.100 166.845,113.022 166.215 C 112.944 165.586,112.881 166.188,112.882 167.553 M232.764 170.745 C 232.765 173.475,232.820 174.545,232.888 173.123 C 232.955 171.700,232.955 169.466,232.887 168.158 C 232.819 166.850,232.763 168.014,232.764 170.745 M63.599 171.277 C 63.599 172.934,63.660 173.613,63.735 172.784 C 63.809 171.955,63.809 170.598,63.735 169.770 C 63.660 168.941,63.599 169.619,63.599 171.277 M345.185 177.305 C 345.185 181.303,345.237 182.939,345.300 180.940 C 345.363 178.941,345.363 175.669,345.300 173.670 C 345.237 171.671,345.185 173.307,345.185 177.305 M112.882 174.291 C 112.884 175.656,112.948 176.171,113.025 175.435 C 113.102 174.700,113.100 173.583,113.022 172.953 C 112.944 172.324,112.881 172.926,112.882 174.291 M148.664 174.468 C 148.664 175.151,148.737 175.430,148.826 175.089 C 148.915 174.747,148.915 174.189,148.826 173.848 C 148.737 173.506,148.664 173.785,148.664 174.468 M101.160 176.241 C 101.160 177.119,101.230 177.478,101.314 177.039 C 101.399 176.600,101.399 175.882,101.314 175.443 C 101.230 175.004,101.160 175.363,101.160 176.241 M113.203 178.723 C 113.203 179.406,113.276 179.685,113.365 179.344 C 113.454 179.003,113.454 178.444,113.365 178.103 C 113.276 177.762,113.203 178.041,113.203 178.723 M344.777 189.362 C 344.777 190.239,344.847 190.598,344.931 190.160 C 345.016 189.721,345.016 189.003,344.931 188.564 C 344.847 188.125,344.777 188.484,344.777 189.362 M189.362 189.894 C 188.500 190.771,187.875 191.489,187.973 191.489 C 188.070 191.489,188.855 190.771,189.716 189.894 C 190.578 189.016,191.203 188.298,191.105 188.298 C 191.008 188.298,190.223 189.016,189.362 189.894 M55.483 191.933 L 53.723 193.794 55.585 192.035 C 56.609 191.067,57.447 190.229,57.447 190.173 C 57.447 189.908,57.118 190.203,55.483 191.933 M344.409 193.617 C 344.409 194.300,344.481 194.579,344.571 194.238 C 344.660 193.896,344.660 193.338,344.571 192.996 C 344.481 192.655,344.409 192.934,344.409 193.617 M160.993 193.791 C 160.993 194.034,163.164 195.110,163.326 194.948 C 163.403 194.871,162.910 194.543,162.230 194.218 C 161.549 193.894,160.993 193.702,160.993 193.791 M171.365 196.712 C 172.097 196.789,173.293 196.789,174.025 196.712 C 174.756 196.636,174.158 196.573,172.695 196.573 C 171.232 196.573,170.634 196.636,171.365 196.712 M94.752 201.249 C 94.328 202.122,94.055 202.837,94.146 202.837 C 94.387 202.837,95.819 199.957,95.659 199.796 C 95.585 199.722,95.177 200.376,94.752 201.249 M130.496 215.071 C 132.146 216.729,133.575 218.085,133.672 218.085 C 133.770 218.085,132.500 216.729,130.851 215.071 C 129.202 213.413,127.773 212.057,127.675 212.057 C 127.578 212.057,128.847 213.413,130.496 215.071 M214.354 215.691 L 211.170 218.972 214.450 215.788 C 217.497 212.830,217.892 212.411,217.634 212.411 C 217.582 212.411,216.106 213.887,214.354 215.691 M84.209 216.046 L 82.092 218.262 84.309 216.146 C 86.367 214.180,86.687 213.830,86.425 213.830 C 86.370 213.830,85.373 214.827,84.209 216.046 M164.628 232.159 C 164.969 232.249,165.527 232.249,165.869 232.159 C 166.210 232.070,165.931 231.997,165.248 231.997 C 164.566 231.997,164.286 232.070,164.628 232.159 M179.876 232.159 C 180.217 232.249,180.776 232.249,181.117 232.159 C 181.458 232.070,181.179 231.997,180.496 231.997 C 179.814 231.997,179.535 232.070,179.876 232.159 M170.286 232.532 C 171.594 232.600,173.828 232.601,175.250 232.533 C 176.673 232.466,175.603 232.410,172.872 232.409 C 170.142 232.409,168.978 232.464,170.286 232.532 M43.889 232.881 C 44.527 232.960,45.484 232.958,46.017 232.877 C 46.550 232.797,46.028 232.732,44.858 232.734 C 43.688 232.736,43.252 232.802,43.889 232.881 M11.525 259.929 C 11.827 260.514,12.155 260.993,12.252 260.993 C 12.350 260.993,12.182 260.514,11.879 259.929 C 11.577 259.344,11.250 258.865,11.152 258.865 C 11.054 258.865,11.222 259.344,11.525 259.929 M37.574 296.897 C 38.443 297.824,39.201 298.582,39.258 298.582 C 39.525 298.582,39.243 298.263,37.677 296.794 L 35.993 295.213 37.574 296.897 M43.262 303.014 C 45.108 304.867,46.697 306.383,46.795 306.383 C 46.892 306.383,45.462 304.867,43.617 303.014 C 41.772 301.161,40.182 299.645,40.085 299.645 C 39.987 299.645,41.417 301.161,43.262 303.014 M49.468 308.865 C 50.230 309.645,50.933 310.284,51.030 310.284 C 51.128 310.284,50.584 309.645,49.823 308.865 C 49.061 308.085,48.358 307.447,48.260 307.447 C 48.163 307.447,48.706 308.085,49.468 308.865 M51.773 310.749 C 51.773 310.810,52.292 311.329,52.926 311.902 L 54.078 312.943 53.036 311.791 C 52.066 310.717,51.773 310.475,51.773 310.749 M85.816 334.205 C 85.816 334.303,86.454 334.708,87.234 335.106 C 88.014 335.504,88.652 335.750,88.652 335.653 C 88.652 335.555,88.014 335.150,87.234 334.752 C 86.454 334.354,85.816 334.108,85.816 334.205 M247.872 335.461 C 246.410 336.222,245.336 336.852,245.488 336.862 C 245.865 336.886,250.709 334.431,250.709 334.215 C 250.709 333.976,250.826 333.925,247.872 335.461 M160.732 354.510 C 161.271 354.591,162.069 354.589,162.505 354.505 C 162.941 354.421,162.500 354.354,161.525 354.357 C 160.550 354.359,160.193 354.428,160.732 354.510 M174.207 354.510 C 174.746 354.591,175.544 354.589,175.980 354.505 C 176.416 354.421,175.975 354.354,175.000 354.357 C 174.025 354.359,173.668 354.428,174.207 354.510 " stroke="none" fill="#747475" fill-rule="evenodd"></path><path id="path4" d="M67.130 31.409 L 66.135 32.321 67.287 31.519 C 67.921 31.078,68.440 30.668,68.440 30.607 C 68.440 30.327,68.047 30.567,67.130 31.409 M373.627 40.351 C 373.532 40.506,374.001 40.568,374.670 40.490 C 375.339 40.412,375.887 40.286,375.887 40.209 C 375.887 39.943,373.799 40.074,373.627 40.351 M346.564 42.730 C 346.566 43.901,346.632 44.337,346.711 43.699 C 346.790 43.062,346.788 42.105,346.707 41.572 C 346.626 41.039,346.562 41.560,346.564 42.730 M372.498 53.014 C 372.498 59.060,372.546 61.584,372.606 58.621 C 372.665 55.659,372.665 50.712,372.606 47.629 C 372.547 44.545,372.498 46.968,372.498 53.014 M49.291 45.567 C 48.429 46.445,47.804 47.163,47.902 47.163 C 47.999 47.163,48.784 46.445,49.645 45.567 C 50.507 44.690,51.132 43.972,51.034 43.972 C 50.937 43.972,50.152 44.690,49.291 45.567 M286.525 45.213 C 287.186 45.895,287.808 46.454,287.905 46.454 C 288.003 46.454,287.541 45.895,286.879 45.213 C 286.218 44.530,285.597 43.972,285.499 43.972 C 285.402 43.972,285.863 44.530,286.525 45.213 M355.747 55.210 C 355.707 59.928,355.793 63.862,355.940 63.953 C 356.086 64.044,356.165 61.540,356.114 58.389 C 355.944 47.682,355.820 46.610,355.747 55.210 M43.078 51.507 L 39.539 55.142 43.174 51.602 C 45.173 49.656,46.809 48.020,46.809 47.968 C 46.809 47.711,46.366 48.131,43.078 51.507 M294.504 52.837 C 295.858 54.202,297.047 55.319,297.144 55.319 C 297.242 55.319,296.213 54.202,294.858 52.837 C 293.503 51.472,292.315 50.355,292.218 50.355 C 292.120 50.355,293.149 51.472,294.504 52.837 M37.234 57.624 C 36.373 58.502,35.748 59.220,35.845 59.220 C 35.943 59.220,36.727 58.502,37.589 57.624 C 38.450 56.746,39.075 56.028,38.977 56.028 C 38.880 56.028,38.095 56.746,37.234 57.624 M298.582 57.203 C 298.582 57.264,299.100 57.783,299.734 58.356 L 300.887 59.397 299.845 58.245 C 298.874 57.170,298.582 56.929,298.582 57.203 M11.170 94.681 C 10.868 95.266,10.700 95.745,10.797 95.745 C 10.895 95.745,11.222 95.266,11.525 94.681 C 11.827 94.096,11.995 93.617,11.898 93.617 C 11.800 93.617,11.473 94.096,11.170 94.681 M171.904 109.477 C 172.541 109.556,173.498 109.554,174.031 109.473 C 174.564 109.392,174.043 109.328,172.872 109.330 C 171.702 109.332,171.266 109.398,171.904 109.477 M15.185 109.840 C 20.904 109.895,30.159 109.895,35.752 109.840 C 41.346 109.785,36.667 109.741,25.355 109.741 C 14.043 109.741,9.466 109.785,15.185 109.840 M166.228 109.825 C 166.669 109.910,167.307 109.907,167.646 109.818 C 167.985 109.729,167.624 109.660,166.844 109.664 C 166.064 109.668,165.786 109.740,166.228 109.825 M178.284 109.825 C 178.725 109.910,179.364 109.907,179.703 109.818 C 180.042 109.729,179.681 109.660,178.901 109.664 C 178.121 109.668,177.843 109.740,178.284 109.825 M261.109 109.840 C 274.143 109.892,295.366 109.892,308.272 109.840 C 321.178 109.789,310.514 109.747,284.574 109.747 C 258.635 109.747,248.075 109.789,261.109 109.840 M47.606 110.174 C 47.948 110.263,48.506 110.263,48.848 110.174 C 49.189 110.084,48.910 110.011,48.227 110.011 C 47.544 110.011,47.265 110.084,47.606 110.174 M211.879 124.113 C 212.641 124.894,213.344 125.532,213.442 125.532 C 213.539 125.532,212.996 124.894,212.234 124.113 C 211.472 123.333,210.769 122.695,210.672 122.695 C 210.574 122.695,211.118 123.333,211.879 124.113 M80.851 123.515 C 80.851 123.576,81.370 124.095,82.004 124.668 L 83.156 125.709 82.115 124.557 C 81.144 123.482,80.851 123.241,80.851 123.515 M85.106 127.837 C 86.166 128.910,87.112 129.787,87.210 129.787 C 87.307 129.787,86.520 128.910,85.461 127.837 C 84.402 126.764,83.455 125.887,83.358 125.887 C 83.260 125.887,84.047 126.764,85.106 127.837 M129.239 128.457 L 127.837 129.965 129.344 128.563 C 130.746 127.259,131.014 126.950,130.746 126.950 C 130.688 126.950,130.010 127.629,129.239 128.457 M217.021 129.255 C 217.683 129.938,218.304 130.496,218.402 130.496 C 218.499 130.496,218.038 129.938,217.376 129.255 C 216.714 128.573,216.093 128.014,215.996 128.014 C 215.898 128.014,216.360 128.573,217.021 129.255 M95.061 142.376 C 95.061 142.571,95.289 143.129,95.567 143.617 C 95.846 144.105,96.074 144.344,96.074 144.149 C 96.074 143.954,95.846 143.395,95.567 142.908 C 95.289 142.420,95.061 142.181,95.061 142.376 M272.160 232.270 C 272.160 281.126,272.201 301.113,272.252 276.684 C 272.302 252.256,272.302 212.283,272.252 187.855 C 272.201 163.426,272.160 183.413,272.160 232.270 M308.953 213.898 C 308.902 254.592,308.998 284.437,309.180 284.550 C 309.353 284.657,309.712 284.466,309.978 284.127 C 310.415 283.569,310.402 283.557,309.841 283.997 C 309.252 284.459,309.217 281.028,309.131 213.961 L 309.041 143.440 308.953 213.898 M189.007 151.241 C 189.669 151.924,190.290 152.482,190.387 152.482 C 190.485 152.482,190.023 151.924,189.362 151.241 C 188.700 150.559,188.079 150.000,187.981 150.000 C 187.884 150.000,188.345 150.559,189.007 151.241 M155.829 151.507 L 154.787 152.660 155.940 151.618 C 156.574 151.045,157.092 150.527,157.092 150.466 C 157.092 150.192,156.800 150.433,155.829 151.507 M344.409 157.801 C 344.409 158.484,344.481 158.763,344.571 158.422 C 344.660 158.081,344.660 157.522,344.571 157.181 C 344.481 156.840,344.409 157.119,344.409 157.801 M344.763 161.348 C 344.763 162.030,344.836 162.309,344.925 161.968 C 345.014 161.627,345.014 161.068,344.925 160.727 C 344.836 160.386,344.763 160.665,344.763 161.348 M345.137 166.135 C 345.140 167.110,345.208 167.467,345.290 166.928 C 345.371 166.389,345.369 165.591,345.285 165.155 C 345.201 164.719,345.134 165.160,345.137 166.135 M113.210 166.489 C 113.214 167.270,113.287 167.547,113.371 167.106 C 113.456 166.665,113.453 166.026,113.364 165.687 C 113.275 165.348,113.206 165.709,113.210 166.489 M148.309 168.440 C 148.309 169.122,148.382 169.402,148.471 169.060 C 148.561 168.719,148.561 168.160,148.471 167.819 C 148.382 167.478,148.309 167.757,148.309 168.440 M345.533 177.305 C 345.533 180.328,345.587 181.565,345.654 180.053 C 345.720 178.542,345.720 176.068,345.654 174.557 C 345.587 173.045,345.533 174.282,345.533 177.305 M148.309 173.404 C 148.309 174.087,148.382 174.366,148.471 174.025 C 148.561 173.684,148.561 173.125,148.471 172.784 C 148.382 172.442,148.309 172.722,148.309 173.404 M113.203 175.177 C 113.203 175.860,113.276 176.139,113.365 175.798 C 113.454 175.457,113.454 174.898,113.365 174.557 C 113.276 174.215,113.203 174.495,113.203 175.177 M345.132 188.298 C 345.132 189.176,345.201 189.535,345.286 189.096 C 345.370 188.657,345.370 187.939,345.286 187.500 C 345.201 187.061,345.132 187.420,345.132 188.298 M55.307 192.465 L 53.369 194.504 55.408 192.565 C 56.529 191.499,57.447 190.582,57.447 190.526 C 57.447 190.263,57.108 190.570,55.307 192.465 M344.763 193.262 C 344.763 193.945,344.836 194.224,344.925 193.883 C 345.014 193.542,345.014 192.983,344.925 192.642 C 344.836 192.301,344.763 192.580,344.763 193.262 M344.409 196.809 C 344.409 197.491,344.481 197.770,344.571 197.429 C 344.660 197.088,344.660 196.529,344.571 196.188 C 344.481 195.847,344.409 196.126,344.409 196.809 M128.369 212.522 C 128.369 212.583,128.887 213.102,129.521 213.675 L 130.674 214.716 129.632 213.564 C 128.661 212.490,128.369 212.248,128.369 212.522 M83.854 216.046 L 81.738 218.262 83.954 216.146 C 86.013 214.180,86.332 213.830,86.070 213.830 C 86.016 213.830,85.018 214.827,83.854 216.046 M212.927 216.755 L 211.525 218.262 213.032 216.861 C 213.861 216.090,214.539 215.412,214.539 215.354 C 214.539 215.085,214.230 215.354,212.927 216.755 M168.355 232.166 C 168.796 232.251,169.435 232.247,169.774 232.159 C 170.113 232.070,169.752 232.000,168.972 232.004 C 168.191 232.008,167.914 232.081,168.355 232.166 M176.330 232.159 C 176.671 232.249,177.230 232.249,177.571 232.159 C 177.912 232.070,177.633 231.997,176.950 231.997 C 176.268 231.997,175.988 232.070,176.330 232.159 M45.479 232.514 C 45.820 232.603,46.379 232.603,46.720 232.514 C 47.061 232.425,46.782 232.352,46.099 232.352 C 45.417 232.352,45.137 232.425,45.479 232.514 M37.219 296.897 C 38.089 297.824,38.847 298.582,38.904 298.582 C 39.170 298.582,38.888 298.263,37.323 296.794 L 35.638 295.213 37.219 296.897 M43.262 303.369 C 45.499 305.612,47.409 307.447,47.506 307.447 C 47.604 307.447,45.854 305.612,43.617 303.369 C 41.380 301.126,39.471 299.291,39.373 299.291 C 39.276 299.291,41.026 301.126,43.262 303.369 M49.823 309.574 C 50.584 310.355,51.288 310.993,51.385 310.993 C 51.483 310.993,50.939 310.355,50.177 309.574 C 49.416 308.794,48.712 308.156,48.615 308.156 C 48.517 308.156,49.061 308.794,49.823 309.574 " stroke="none" fill="#c2c4c5" fill-rule="evenodd"></path></g></svg>